<svg width="24" height="24" viewBox="0 0 24 24" fill="none" xmlns="http://www.w3.org/2000/svg">
<path d="M9.7998 17.1774L9.7998 14.3009M9.7998 14.3009L9.7998 9.47739C9.7998 8.9251 10.2475 8.47739 10.7998 8.47739L12.888 8.47739C14.4962 8.47739 15.7998 9.78103 15.7998 11.3892C15.7998 12.9973 14.4962 14.3009 12.888 14.3009L9.7998 14.3009Z" stroke="#2C2E33" stroke-width="2.1" stroke-linecap="round" stroke-linejoin="round"/>
<path d="M21.9856 13.0144C21.6888 18.5293 16.9776 22.7594 11.4627 22.4627C5.94785 22.1659 1.71772 17.4547 2.01446 11.9398C2.3112 6.42494 7.02244 2.19481 12.5373 2.49155" stroke="#2C2E33" stroke-width="2" stroke-linecap="round"/>
<path d="M21.9862 11.9533C22.2755 17.4685 18.0391 22.1741 12.5238 22.4634C7.00856 22.7528 2.303 18.5163 2.01365 13.0011C1.72431 7.48581 5.96075 2.78024 11.476 2.4909" stroke="#2C2E33" stroke-width="2" stroke-linecap="round"/>
<path fill-rule="evenodd" clip-rule="evenodd" d="M15.5 5.29864C15.5 5.85093 15.9477 6.29864 16.5 6.29864L18.1787 6.29864L18.1787 7.9772C18.1787 8.52949 18.6264 8.9772 19.1787 8.9772C19.731 8.9772 20.1787 8.52949 20.1787 7.9772L20.1787 6.29864L22 6.29864C22.5523 6.29864 23 5.85093 23 5.29864C23 4.74636 22.5523 4.29864 22 4.29864L20.1787 4.29864L20.1787 2.4772C20.1787 1.92492 19.731 1.4772 19.1787 1.4772C18.6264 1.4772 18.1787 1.92492 18.1787 2.4772L18.1787 4.29864L16.5 4.29864C15.9477 4.29864 15.5 4.74636 15.5 5.29864Z" fill="#2C2E33"/>
<path fill-rule="evenodd" clip-rule="evenodd" d="M15.5 5.29864C15.5 5.85093 15.9477 6.29864 16.5 6.29864L18.1787 6.29864L18.1787 7.9772C18.1787 8.52949 18.6264 8.9772 19.1787 8.9772C19.731 8.9772 20.1787 8.52949 20.1787 7.9772L20.1787 6.29864L22 6.29864C22.5523 6.29864 23 5.85093 23 5.29864C23 4.74636 22.5523 4.29864 22 4.29864L20.1787 4.29864L20.1787 2.4772C20.1787 1.92492 19.731 1.4772 19.1787 1.4772C18.6264 1.4772 18.1787 1.92492 18.1787 2.4772L18.1787 4.29864L16.5 4.29864C15.9477 4.29864 15.5 4.74636 15.5 5.29864Z" fill="#2C2E33"/>
<path fill-rule="evenodd" clip-rule="evenodd" d="M15.5 5.29864C15.5 5.85093 15.9477 6.29864 16.5 6.29864L18.1787 6.29864L18.1787 7.9772C18.1787 8.52949 18.6264 8.9772 19.1787 8.9772C19.731 8.9772 20.1787 8.52949 20.1787 7.9772L20.1787 6.29864L22 6.29864C22.5523 6.29864 23 5.85093 23 5.29864C23 4.74636 22.5523 4.29864 22 4.29864L20.1787 4.29864L20.1787 2.4772C20.1787 1.92492 19.731 1.4772 19.1787 1.4772C18.6264 1.4772 18.1787 1.92492 18.1787 2.4772L18.1787 4.29864L16.5 4.29864C15.9477 4.29864 15.5 4.74636 15.5 5.29864Z" fill="#2C2E33"/>
<path fill-rule="evenodd" clip-rule="evenodd" d="M15.5 5.29864C15.5 5.85093 15.9477 6.29864 16.5 6.29864L18.1787 6.29864L18.1787 7.9772C18.1787 8.52949 18.6264 8.9772 19.1787 8.9772C19.731 8.9772 20.1787 8.52949 20.1787 7.9772L20.1787 6.29864L22 6.29864C22.5523 6.29864 23 5.85093 23 5.29864C23 4.74636 22.5523 4.29864 22 4.29864L20.1787 4.29864L20.1787 2.4772C20.1787 1.92492 19.731 1.4772 19.1787 1.4772C18.6264 1.4772 18.1787 1.92492 18.1787 2.4772L18.1787 4.29864L16.5 4.29864C15.9477 4.29864 15.5 4.74636 15.5 5.29864Z" fill="#2C2E33"/>
</svg>
