<svg width="24" height="24" viewBox="0 0 24 24" fill="none" xmlns="http://www.w3.org/2000/svg">
<g clip-path="url(#clip0_7700_48223)">
<path d="M15.9372 17.8787C13.2749 20.5136 9.26481 20.6093 6.4787 19.4042C3.42589 18.0843 1.29226 14.8277 1.5161 10.9446C1.81138 5.66031 6.08341 1.3516 11.3413 1.02163C17.4517 0.639064 22.5 5.37816 22.5 11.4371C22.5 15.5671 19.7 20.6151 13.8601 23" stroke="#2C2E33" stroke-width="2" stroke-linecap="round" stroke-linejoin="round"/>
<path d="M12.6649 12.1156C12.8485 11.046 12.3297 10.0644 11.5061 9.92304C10.6826 9.78167 9.86611 10.5341 9.68252 11.6037C9.49893 12.6732 10.0177 13.6549 10.8413 13.7962C11.6648 13.9376 12.4813 13.1852 12.6649 12.1156Z" fill="#2C2E33"/>
<path d="M17.6649 12.1156C17.8485 11.046 17.3297 10.0644 16.5061 9.92304C15.6826 9.78167 14.8661 10.5341 14.6825 11.6037C14.4989 12.6732 15.0177 13.6549 15.8413 13.7962C16.6648 13.9376 17.4813 13.1852 17.6649 12.1156Z" fill="#2C2E33"/>
<path d="M6.6499 11.5571C7.12478 9.26354 8.6335 7.44802 10.0186 7.50114C11.4036 7.55425 12.1407 9.45186 11.6658 11.7454" stroke="#2C2E33" stroke-width="2" stroke-linecap="round" stroke-linejoin="round"/>
<path d="M11.7002 11.7452C12.1637 9.4517 13.7571 7.45269 15.1091 7.50098C16.4611 7.54926 17.1806 9.4517 16.717 11.7452" stroke="#2C2E33" stroke-width="2" stroke-linecap="round" stroke-linejoin="round"/>
</g>
<defs>
<clipPath id="clip0_7700_48223">
<rect width="24" height="24" fill="white"/>
</clipPath>
</defs>
</svg>
