<svg width="24" height="24" viewBox="0 0 24 24" fill="none" xmlns="http://www.w3.org/2000/svg">
<path d="M12.0835 2V2C7.9415 2 4.5835 5.358 4.5835 9.5V13.0167C4.5835 13.8607 4.5135 14.7047 4.35283 15.5327C4.1715 16.4653 3.85883 17.6287 3.3335 18.5513H12.0828" stroke="#2C2E33" stroke-width="2" stroke-linecap="round" stroke-linejoin="round"/>
<path d="M15.2085 18.5514V18.8747C15.2085 20.6007 13.8092 22.0001 12.0838 22.0001C10.3578 22.0001 8.9585 20.6007 8.9585 18.8747V18.5514" stroke="#2C2E33" stroke-width="2" stroke-linecap="round" stroke-linejoin="round"/>
<path fill-rule="evenodd" clip-rule="evenodd" d="M18.5631 8.98117C18.5766 9.15234 18.5835 9.32536 18.5835 9.5V13.0167C18.5835 13.9155 18.658 14.824 18.8325 15.7232L18.8325 15.7235C18.9377 16.2646 19.0895 16.9055 19.3084 17.5513H12.0842C11.5319 17.5513 11.0842 17.999 11.0842 18.5513C11.0842 19.1036 11.5319 19.5513 12.0842 19.5513H20.8335C21.1897 19.5513 21.519 19.3619 21.698 19.0539C21.877 18.746 21.8788 18.3661 21.7025 18.0565C21.2577 17.2753 20.9701 16.2383 20.7959 15.3422C20.649 14.5853 20.5835 13.8059 20.5835 13.0167V9.5C20.5835 9.24887 20.5726 9.00029 20.5513 8.75469C20.0629 8.91392 19.5415 9 19 9C18.8528 9 18.7071 8.99364 18.5631 8.98117ZM14.7184 1.41632C14.3766 1.98151 14.1436 2.61983 14.0483 3.30227C13.4284 3.10592 12.7683 3 12.0835 3C11.5312 3 11.0835 2.55228 11.0835 2C11.0835 1.44772 11.5312 1 12.0835 1C13.0032 1 13.8888 1.14609 14.7184 1.41632Z" fill="#2C2E33"/>
</svg>
