<svg width="24" height="24" viewBox="0 0 24 24" fill="none" xmlns="http://www.w3.org/2000/svg">
<path fill-rule="evenodd" clip-rule="evenodd" d="M1 4C1 3.44772 1.44772 3 2 3H22C22.5523 3 23 3.44772 23 4C23 4.55228 22.5523 5 22 5H2C1.44772 5 1 4.55228 1 4ZM1 12C1 11.4477 1.44772 11 2 11H14C14.5523 11 15 11.4477 15 12C15 12.5523 14.5523 13 14 13H2C1.44772 13 1 12.5523 1 12ZM2 19C1.44772 19 1 19.4477 1 20C1 20.5523 1.44772 21 2 21H18C18.5523 21 19 20.5523 19 20C19 19.4477 18.5523 19 18 19H2Z" fill="#2C2E33"/>
</svg>
