<svg width="24" height="24" viewBox="0 0 24 24" fill="none" xmlns="http://www.w3.org/2000/svg">
<path d="M12.0835 2V2C7.9415 2 4.5835 5.358 4.5835 9.5V13.0167C4.5835 13.8607 4.5135 14.7047 4.35283 15.5327C4.1715 16.4653 3.85883 17.6287 3.3335 18.5513H12.0828" stroke="#2C2E33" stroke-width="2" stroke-linecap="round" stroke-linejoin="round"/>
<path d="M12.0835 2V2C16.2255 2 19.5835 5.358 19.5835 9.5V13.0167C19.5835 13.8607 19.6535 14.7047 19.8142 15.5327C19.9955 16.4653 20.3082 17.6287 20.8335 18.5513H12.0842" stroke="#2C2E33" stroke-width="2" stroke-linecap="round" stroke-linejoin="round"/>
<path d="M15.2085 18.5514V18.8747C15.2085 20.6007 13.8092 22.0001 12.0838 22.0001C10.3578 22.0001 8.9585 20.6007 8.9585 18.8747V18.5514" stroke="#2C2E33" stroke-width="2" stroke-linecap="round" stroke-linejoin="round"/>
</svg>
