<svg width="24" height="24" viewBox="0 0 24 24" fill="none" xmlns="http://www.w3.org/2000/svg">
<path d="M15 6V5C15 2.79086 13.2091 1 11 1H5C2.79086 1 1 2.79086 1 5V11C1 13.2091 2.79086 15 5 15H6" stroke="#2C2E33" stroke-width="2" stroke-linecap="round" stroke-linejoin="round"/>
<path d="M10.5455 4.81641C10.5455 6.22222 9.40586 7.36186 8.00004 7.36186C6.59423 7.36186 5.45459 6.22222 5.45459 4.81641" stroke="#2C2E33" stroke-width="2" stroke-linecap="round" stroke-linejoin="round"/>
<path fill-rule="evenodd" clip-rule="evenodd" d="M18.5273 14.2636C18.5273 16.6184 16.6184 18.5273 14.2636 18.5273C11.9089 18.5273 10 16.6184 10 14.2636C10 11.9089 11.9089 10 14.2636 10C16.6184 10 18.5273 11.9089 18.5273 14.2636ZM17.9291 19.3434C16.8986 20.0883 15.6324 20.5273 14.2636 20.5273C10.8043 20.5273 8 17.723 8 14.2636C8 10.8043 10.8043 8 14.2636 8C17.723 8 20.5273 10.8043 20.5273 14.2636C20.5273 15.6324 20.0882 16.8986 19.3433 17.9292L22.7082 21.294C23.0987 21.6846 23.0987 22.3177 22.7082 22.7083C22.3177 23.0988 21.6845 23.0988 21.294 22.7083L17.9291 19.3434Z" fill="#2C2E33"/>
</svg>
