<svg width="24" height="24" viewBox="0 0 24 24" fill="none" xmlns="http://www.w3.org/2000/svg">
<path fill-rule="evenodd" clip-rule="evenodd" d="M15.2931 10.2927C14.9025 10.6831 14.9023 11.3163 15.2927 11.7069C15.6831 12.0975 16.3163 12.0977 16.7069 11.7073L20.7069 7.70949C20.8945 7.52201 20.9999 7.26768 21 7.00247C21 7.00165 21 7.00082 21 7C21 6.70386 20.8713 6.43778 20.6667 6.25468L16.7073 2.29309C16.3169 1.90246 15.6837 1.90228 15.2931 2.2927C14.9025 2.68312 14.9023 3.31628 15.2927 3.70691L17.5845 6H5C4.44772 6 4 6.44771 4 7C4 7.55228 4.44772 8 5 8H17.587L15.2931 10.2927Z" fill="#2C2E33"/>
<path fill-rule="evenodd" clip-rule="evenodd" d="M9.70691 13.7073C10.0975 13.3169 10.0977 12.6837 9.7073 12.2931C9.31688 11.9025 8.68372 11.9023 8.29309 12.2927L4.29309 16.2905C4.1055 16.478 4.00007 16.7323 4 16.9975C4 16.9984 4 16.9992 4 17C4 17.2961 4.12873 17.5622 4.33328 17.7453L8.2927 21.7069C8.68312 22.0975 9.31628 22.0977 9.70691 21.7073C10.0975 21.3169 10.0977 20.6837 9.7073 20.2931L7.41547 18L20 18C20.5523 18 21 17.5523 21 17C21 16.4477 20.5523 16 20 16L7.41295 16L9.70691 13.7073Z" fill="#2C2E33"/>
</svg>
