<svg width="562" height="131" viewBox="0 0 562 131" fill="none" xmlns="http://www.w3.org/2000/svg">
<g clip-path="url(#clip0_38_180)">
<path d="M562 57.6351C562 26.6273 539.141 5.3241 511.892 5.3241C496.527 5.3241 488.172 11.0391 479.891 18.2098C478.943 19.032 477.532 19.0387 476.577 18.2233C468.209 11.0526 459.216 5.33084 445.114 5.33084C416.709 5.33084 394.461 28.676 394.461 57.6419V123.297C394.461 127.543 397.896 130.993 402.137 130.993H421.32C425.562 130.993 428.996 127.549 428.996 123.297V54.8113C428.996 46.5489 435.489 38.6773 444.98 38.6773C453.671 38.6773 460.963 45.6795 460.963 54.8046V123.29C460.963 127.536 464.398 130.987 468.639 130.987H487.822C492.064 130.987 495.498 127.543 495.498 123.29V54.8046C495.498 46.4815 501.991 38.6571 511.482 38.6571C519.937 38.6571 527.465 45.0864 527.465 54.7979V123.283C527.465 127.529 530.9 130.98 535.141 130.98H554.324C558.565 130.98 562 127.536 562 123.283V57.6284V57.6351Z" fill="#F85F65"/>
<path d="M377.839 5.33761H358.656C354.422 5.33761 350.98 8.78143 350.98 13.034V71.3835C350.98 85.2733 340.226 97.1212 326.38 97.6468C311.821 98.1995 299.81 86.4864 299.81 72.0103V13.0272C299.81 8.78143 296.376 5.33087 292.134 5.33087H272.951C268.71 5.33087 265.275 8.77469 265.275 13.0272V69.7121C265.275 102.715 291.314 130.36 324.229 130.987C357.904 131.627 385.509 104.346 385.509 70.723V13.0272C385.509 8.78143 382.074 5.33087 377.833 5.33087" fill="#FCA213"/>
<path d="M257.384 69.173C257.384 17.0035 217.587 -0.545859 193.443 0.0135091C156.805 0.86267 130.806 28.3863 129.543 61.6181C128.158 98.1658 157.295 128.23 193.443 128.23C204.621 128.23 215.133 125.352 224.275 120.298C225.834 119.435 227.729 119.462 229.269 120.352L245.877 129.962C250.992 132.921 257.384 129.221 257.384 123.297V69.173ZM164.03 64.1117C164.03 47.1959 175.255 33.98 193.443 33.98C211.631 33.98 222.856 46.7848 222.856 64.1117C222.856 80.5221 211.9 94.2435 193.443 94.2435C174.986 94.2435 164.03 80.6164 164.03 64.1117Z" fill="#18BA68"/>
<path d="M58.8328 36.7498C75.428 36.7498 88.8575 51.2462 88.2257 68.0205C87.6207 83.9794 74.0367 97.0201 58.1136 97.0201H37.0956C35.6841 97.0201 34.5348 95.8744 34.5348 94.4524V39.3175C34.5348 37.9023 35.6774 36.7498 37.0956 36.7498H58.8395H58.8328ZM58.8328 2.7699H7.67589C3.43466 2.7699 0 6.21372 0 10.4663V123.31C0 127.556 3.43466 131.007 7.67589 131.007H58.8328C94.1472 131.007 122.781 102.304 122.781 66.8883C122.781 31.4796 94.154 2.7699 58.8328 2.7699Z" fill="#1E83FF"/>
</g>
<defs>
<clipPath id="clip0_38_180">
<rect width="562" height="131" fill="white"/>
</clipPath>
</defs>
</svg>
