<svg width="24" height="24" viewBox="0 0 24 24" fill="none" xmlns="http://www.w3.org/2000/svg">
<path fill-rule="evenodd" clip-rule="evenodd" d="M6.80919 1L6.77141 1H6.77137C6.29453 0.999983 5.87785 0.999967 5.53357 1.0281C5.16854 1.05792 4.79777 1.12428 4.43883 1.30717C3.90855 1.57736 3.47742 2.0085 3.20724 2.53878C3.02433 2.89776 2.95799 3.26862 2.92817 3.6337C2.90005 3.97809 2.90007 4.39493 2.90009 4.872L2.9001 4.90977L2.90011 6.0909V6.09091L2.89998 17.4545L2.89991 19.091L2.89991 19.1288C2.89986 19.6055 2.89982 20.0222 2.92793 20.3665C2.95774 20.7315 3.0241 21.1022 3.20696 21.4612C3.47712 21.9914 3.90831 22.4226 4.43856 22.6928C4.79748 22.8757 5.1682 22.9421 5.5332 22.9719C5.87741 23 6.29398 23 6.77064 23H6.77076H6.80855H13.0478C19.0961 23 23.991 18.0689 23.991 12C23.991 5.9311 19.0961 1 13.0478 1H6.80919ZM5.34682 3.08918C5.37681 3.0739 5.45508 3.04117 5.69643 3.02145C5.94945 3.00078 6.28354 3 6.80919 3H13.0478C17.9808 3 21.991 7.02491 21.991 12C21.991 16.9751 17.9808 21 13.0478 21H6.80855C6.28303 21 5.94905 20.9992 5.6961 20.9786C5.45486 20.9588 5.3766 20.9261 5.34657 20.9108C5.19266 20.8324 5.06743 20.7072 4.98901 20.5532C4.97372 20.5232 4.941 20.445 4.9213 20.2037C4.90064 19.9507 4.89988 19.6167 4.89991 19.0911L4.89998 17.4546L4.90011 6.09092V6.09091L4.9001 4.90975C4.90009 4.3839 4.90086 4.04963 4.92154 3.79649C4.94126 3.55499 4.97399 3.4767 4.98926 3.44674C5.0677 3.29279 5.19286 3.16762 5.34682 3.08918ZM10.4955 15.4998V8.49976H13.2393C14.8623 8.49976 16.3955 9.94368 16.3955 11.9998C16.3955 14.0558 14.8623 15.4998 13.2393 15.4998H10.4955ZM13.2393 6.49976H9.59549C9.3164 6.49976 9.17685 6.49976 9.06331 6.5342C8.8076 6.61176 8.60751 6.81185 8.52995 7.06755C8.49551 7.1811 8.49551 7.32065 8.49551 7.59976V16.3998C8.49551 16.6789 8.49551 16.8184 8.52996 16.932C8.60751 17.1877 8.8076 17.3878 9.0633 17.4653C9.17685 17.4998 9.3164 17.4998 9.5955 17.4998H13.2393C16.0865 17.4998 18.3955 15.0369 18.3955 11.9998C18.3955 8.96266 16.0865 6.49976 13.2393 6.49976Z" fill="#2C2E33"/>
</svg>
