<svg width="18" height="18" viewBox="0 0 18 18" fill="none" xmlns="http://www.w3.org/2000/svg">
<path fill-rule="evenodd" clip-rule="evenodd" d="M13.2448 8.36996C12.9714 8.64333 12.5282 8.64333 12.2548 8.36996C11.9815 8.0966 11.9815 7.65338 12.2548 7.38001L14.0599 5.57499H14.0537H14.042H14.0302H14.0184H14.0065H13.9947H13.9827H13.9707H13.9587H13.9467H13.9346H13.9224H13.9103H13.898H13.8858H13.8735H13.8611H13.8488H13.8363H13.8239H13.8114H13.7989H13.7863H13.7737H13.761H13.7483H13.7356H13.7228H13.71H13.6971H13.6842H13.6713H13.6583H13.6453H13.6322H13.6191H13.606H13.5928H13.5796H13.5664H13.5531H13.5397H13.5264H13.513H13.4995H13.486H13.4725H13.4589H13.4453H13.4317H13.418H13.4043H13.3905H13.3767H13.3629H13.349H13.335H13.3211H13.3071H13.2931H13.279H13.2649H13.2507H13.2365H13.2223H13.208H13.1937H13.1793H13.165H13.1505H13.1361H13.1216H13.107H13.0924H13.0778H13.0632H13.0485H13.0337H13.0189H13.0041H12.9893H12.9744H12.9595H12.9445H12.9295H12.9144H12.8994H12.8842H12.8691H12.8539H12.8386H12.8234H12.8081H12.7927H12.7773H12.7619H12.7464H12.7309H12.7154H12.6998H12.6842H12.6685H12.6528H12.6371H12.6213H12.6055H12.5897H12.5738H12.5579H12.5419H12.5259H12.5099H12.4938H12.4777H12.4615H12.4454H12.4291H12.4129H12.3966H12.3802H12.3639H12.3474H12.331H12.3145H12.298H12.2814H12.2648H12.2482H12.2315H12.2148H12.198H12.1813H12.1644H12.1476H12.1307H12.1137H12.0968H12.0798H12.0627H12.0456H12.0285H12.0113H11.9941H11.9769H11.9596H11.9423H11.925H11.9076H11.8902H11.8727H11.8552H11.8377H11.8201H11.8025H11.7849H11.7672H11.7495H11.7318H11.714H11.6962H11.6783H11.6604H11.6425H11.6245H11.6065H11.5885H11.5704H11.5523H11.5341H11.5159H11.4977H11.4794H11.4611H11.4428H11.4244H11.406H11.3876H11.3691H11.3506H11.332H11.3134H11.2948H11.2762H11.2575H11.2387H11.22H11.2012H11.1823H11.1634H11.1445H11.1256H11.1066H11.0876H11.0685H11.0494H11.0303H11.0111H10.9919H10.9727H10.9534H10.9341H10.9148H10.8954H10.876H10.8565H10.837H10.8175H10.798H10.7784H10.7587H10.7391H10.7194H10.6996H10.6799H10.6601H10.6402H10.6204H10.6004H10.5805H10.5605H10.5405H10.5205H10.5004H10.4802H10.4601H10.4399H10.4197H10.3994H10.3791H10.3588H10.3384H10.318H10.2976H10.2771H10.2566H10.236H10.2155H10.1948H10.1742H10.1535H10.1328H10.112H10.0913H10.0704H10.0496H10.0287H10.0078H9.98681H9.96581H9.94478H9.92372H9.90262H9.88149H9.86032H9.83912H9.81788H9.79661H9.77531H9.75397H9.7326H9.71119H9.68975H9.66827H9.64676H9.62521H9.60363H9.58202H9.56037H9.53869H9.51698H9.49523H9.47344H9.45162H9.42977H9.40789H9.38597H9.36401H9.34202H9.32H9.29795H9.27586H9.25374H9.23158H9.20939H9.18716H9.1649H9.14261H9.12029H9.09793H9.07553H9.05311H9.03065H9.00815H8.98563H8.96307H8.94047H8.91784H8.89518H8.87249H8.84976H8.827H8.8042H8.78138H8.75851H8.73562H8.71269H8.68973H8.66674H8.64371H8.62065H8.59755H8.57443H8.55127H8.52807H8.50485H8.48159H8.45829H8.43497H8.41161H8.38822H8.3648H8.34134H8.31785H8.29433H8.27077H8.24718H8.22356H8.19991H8.17622H8.1525H8.12875H8.10496H8.08115H8.0573H8.03341H8.0095H7.98555H7.96157H7.93756H7.91351H7.88944H7.86533H7.84118H7.81701H7.7928H7.76856H7.74429H7.71999H7.69565H7.67128H7.64688H7.62245H7.59799H7.57349H7.54896H7.5244H7.4998C5.64896 5.57499 4.54747 6.38273 3.88081 7.3748C3.18894 8.40435 2.9498 9.6652 2.9498 10.5C2.9498 10.8866 2.6364 11.2 2.2498 11.2C1.86321 11.2 1.5498 10.8866 1.5498 10.5C1.5498 9.45978 1.83567 7.90812 2.7188 6.59393C3.62714 5.24224 5.15065 4.17499 7.4998 4.17499H7.5244H7.54896H7.57349H7.59799H7.62245H7.64688H7.67128H7.69565H7.71999H7.74429H7.76856H7.7928H7.81701H7.84118H7.86533H7.88944H7.91351H7.93756H7.96157H7.98555H8.0095H8.03341H8.0573H8.08115H8.10496H8.12875H8.1525H8.17622H8.19991H8.22356H8.24718H8.27077H8.29433H8.31785H8.34134H8.3648H8.38822H8.41161H8.43497H8.45829H8.48159H8.50485H8.52807H8.55127H8.57443H8.59755H8.62065H8.64371H8.66674H8.68973H8.71269H8.73562H8.75851H8.78138H8.8042H8.827H8.84976H8.87249H8.89518H8.91784H8.94047H8.96307H8.98563H9.00815H9.03065H9.05311H9.07553H9.09793H9.12029H9.14261H9.1649H9.18716H9.20939H9.23158H9.25374H9.27586H9.29795H9.32H9.34202H9.36401H9.38597H9.40789H9.42977H9.45162H9.47344H9.49523H9.51698H9.53869H9.56037H9.58202H9.60363H9.62521H9.64676H9.66827H9.68975H9.71119H9.7326H9.75397H9.77531H9.79661H9.81788H9.83912H9.86032H9.88149H9.90262H9.92372H9.94478H9.96581H9.98681H10.0078H10.0287H10.0496H10.0704H10.0913H10.112H10.1328H10.1535H10.1742H10.1948H10.2155H10.236H10.2566H10.2771H10.2976H10.318H10.3384H10.3588H10.3791H10.3994H10.4197H10.4399H10.4601H10.4802H10.5004H10.5205H10.5405H10.5605H10.5805H10.6004H10.6204H10.6402H10.6601H10.6799H10.6996H10.7194H10.7391H10.7587H10.7784H10.798H10.8175H10.837H10.8565H10.876H10.8954H10.9148H10.9341H10.9534H10.9727H10.9919H11.0111H11.0303H11.0494H11.0685H11.0876H11.1066H11.1256H11.1445H11.1634H11.1823H11.2012H11.22H11.2387H11.2575H11.2762H11.2948H11.3134H11.332H11.3506H11.3691H11.3876H11.406H11.4244H11.4428H11.4611H11.4794H11.4977H11.5159H11.5341H11.5523H11.5704H11.5885H11.6065H11.6245H11.6425H11.6604H11.6783H11.6962H11.714H11.7318H11.7495H11.7672H11.7849H11.8025H11.8201H11.8377H11.8552H11.8727H11.8902H11.9076H11.925H11.9423H11.9596H11.9769H11.9941H12.0113H12.0285H12.0456H12.0627H12.0798H12.0968H12.1137H12.1307H12.1476H12.1644H12.1813H12.198H12.2148H12.2315H12.2482H12.2648H12.2814H12.298H12.3145H12.331H12.3474H12.3639H12.3802H12.3966H12.4129H12.4291H12.4454H12.4615H12.4777H12.4938H12.5099H12.5259H12.5419H12.5579H12.5738H12.5897H12.6055H12.6213H12.6371H12.6528H12.6685H12.6842H12.6998H12.7154H12.7309H12.7464H12.7619H12.7773H12.7927H12.8081H12.8234H12.8386H12.8539H12.8691H12.8842H12.8994H12.9144H12.9295H12.9445H12.9595H12.9744H12.9893H13.0041H13.0189H13.0337H13.0485H13.0632H13.0778H13.0924H13.107H13.1216H13.1361H13.1505H13.165H13.1793H13.1937H13.208H13.2223H13.2365H13.2507H13.2649H13.279H13.2931H13.3071H13.3211H13.335H13.349H13.3629H13.3767H13.3905H13.4043H13.418H13.4317H13.4453H13.4589H13.4725H13.486H13.4995H13.513H13.5264H13.5397H13.5531H13.5664H13.5796H13.5928H13.606H13.6191H13.6322H13.6453H13.6583H13.6713H13.6842H13.6971H13.71H13.7228H13.7356H13.7483H13.761H13.7737H13.7863H13.7989H13.8114H13.8239H13.8363H13.8488H13.8611H13.8735H13.8858H13.898H13.9103H13.9224H13.9346H13.9467H13.9587H13.9707H13.9827H13.9947H14.0065H14.0184H14.0302H14.042H14.0537H14.0599L12.2548 2.36996C11.9815 2.0966 11.9815 1.65338 12.2548 1.38001C12.5282 1.10665 12.9714 1.10665 13.2448 1.38001L16.2448 4.38001C16.5181 4.65338 16.5181 5.0966 16.2448 5.36996L13.2448 8.36996ZM15.0498 10.5C15.0498 10.1134 15.3632 9.79999 15.7498 9.79999C16.1364 9.79999 16.4498 10.1134 16.4498 10.5V12C16.4498 14.0434 14.7933 15.7 12.7498 15.7H2.2498C1.86321 15.7 1.5498 15.3866 1.5498 15C1.5498 14.6134 1.86321 14.3 2.2498 14.3H12.7498C14.0201 14.3 15.0498 13.2702 15.0498 12V10.5Z" fill="black"/>
</svg>
