<svg width="24" height="24" viewBox="0 0 24 24" fill="none" xmlns="http://www.w3.org/2000/svg">
<path d="M22 10.7085C22 5.87154 17.5074 2 12 2C6.49261 2 2 5.87154 2 10.6986V10.8957C2.03941 13.9003 3.03448 15.5455 5.46798 17.299C5.4928 17.3176 5.50744 17.3468 5.50752 17.3778L5.51724 21.1311V21.2001C5.5292 21.3544 5.58224 21.5026 5.67086 21.6295C5.75947 21.7563 5.88043 21.8572 6.02118 21.9215C6.16193 21.9859 6.31734 22.0114 6.47127 21.9954C6.6252 21.9794 6.77204 21.9225 6.89655 21.8306L10.3113 19.2992C10.32 19.2927 10.3354 19.2921 10.3459 19.2951C10.3772 19.3042 10.5013 19.3176 10.5337 19.3216C11.0139 19.3813 11.5026 19.4071 12 19.4071C17.5074 19.4071 22 15.5356 22 10.7085Z" stroke="#2C2E33" stroke-width="2"/>
<path d="M16.5992 12.3C17.3716 12.3 17.9992 11.6724 17.9992 10.9C17.9992 10.1276 17.3716 9.5 16.5992 9.5C15.8268 9.5 15.1992 10.1276 15.1992 10.9C15.1992 11.6724 15.8268 12.3 16.5992 12.3Z" fill="#2C2E33"/>
<path d="M11.9997 12.3C12.7721 12.3 13.3997 11.6724 13.3997 10.9C13.3997 10.1276 12.7721 9.5 11.9997 9.5C11.2273 9.5 10.5996 10.1276 10.5996 10.9C10.5996 11.6724 11.2273 12.3 11.9997 12.3Z" fill="#2C2E33"/>
<path d="M7.40484 12.3C8.17025 12.3 8.8 11.6724 8.8 10.9C8.8 10.1276 8.16056 9.5 7.40484 9.5C6.62975 9.5 6 10.1276 6 10.9C6 11.6724 6.62975 12.3 7.40484 12.3Z" fill="#2C2E33"/>
</svg>
