<svg width="24" height="24" viewBox="0 0 24 24" fill="none" xmlns="http://www.w3.org/2000/svg">
<path fill-rule="evenodd" clip-rule="evenodd" d="M1.00009 10.6986C1.00009 5.19038 6.07876 1 12.0001 1C17.9222 1 23.0001 5.19106 23.0001 10.7085C23.0001 16.2168 17.9214 20.4071 12.0001 20.4071C11.5297 20.4071 11.0602 20.3855 10.5931 20.3352L7.4905 22.6351C7.22238 22.833 6.90618 22.9556 6.57472 22.99C6.24326 23.0244 5.90862 22.9695 5.60554 22.831C5.30246 22.6925 5.04197 22.4753 4.85114 22.2021C4.6603 21.9289 4.54607 21.6096 4.52032 21.2773L4.51733 21.2388V21.1311L4.50878 17.8328C3.4098 16.9953 2.55276 16.1172 1.96175 15.0514C1.30091 13.8597 1.02133 12.5218 1.00017 10.9088L1 10.8957L1.00009 10.6986ZM12.0001 3C6.90663 3 3.00009 6.55269 3.00009 10.6986V10.889C3.01899 12.2772 3.25661 13.2624 3.71083 14.0815C4.17003 14.9096 4.8994 15.6566 6.05268 16.4877L6.06041 16.4932L6.06804 16.499C6.34395 16.7059 6.50671 17.0303 6.5076 17.3752L6.51665 20.8674L9.71582 18.4959C9.91888 18.3454 10.1241 18.3084 10.2337 18.2981C10.3329 18.2887 10.4408 18.2928 10.5517 18.3164L10.5662 18.3183L10.612 18.3239L10.6342 18.3265L10.6572 18.3293C10.6572 18.3293 10.6572 18.3293 10.6572 18.3293C11.0901 18.3831 11.5371 18.4071 12.0001 18.4071C17.0935 18.4071 21.0001 14.8545 21.0001 10.7085C21.0001 6.55202 17.0928 3 12.0001 3ZM10.5389 18.3146C10.5384 18.3145 10.5385 18.3145 10.5389 18.3146V18.3146Z" fill="#2C2E33"/>
<path fill-rule="evenodd" clip-rule="evenodd" d="M12 2C17.5074 2 22 5.87154 22 10.7085C22 15.5356 17.5074 19.4071 12 19.4071C11.5026 19.4071 11.0139 19.3813 10.5337 19.3216L10.5094 19.3187C10.4609 19.3131 10.3718 19.3026 10.3459 19.2951C10.3354 19.2921 10.32 19.2927 10.3113 19.2992L6.89655 21.8306C6.77204 21.9225 6.6252 21.9794 6.47127 21.9954C6.31734 22.0114 6.16193 21.9859 6.02118 21.9215C5.88043 21.8572 5.75947 21.7563 5.67086 21.6295C5.58224 21.5026 5.5292 21.3544 5.51724 21.2001V21.1311L5.50752 17.3778C5.50744 17.3468 5.4928 17.3176 5.46798 17.299C3.03448 15.5455 2.03941 13.9003 2 10.8957V10.6986C2 5.87154 6.49261 2 12 2ZM17.9992 10.9C17.9992 11.6724 17.3716 12.3 16.5992 12.3C15.8268 12.3 15.1992 11.6724 15.1992 10.9C15.1992 10.1276 15.8268 9.5 16.5992 9.5C17.3716 9.5 17.9992 10.1276 17.9992 10.9ZM11.9997 12.3C12.7721 12.3 13.3997 11.6724 13.3997 10.9C13.3997 10.1276 12.7721 9.5 11.9997 9.5C11.2273 9.5 10.5996 10.1276 10.5996 10.9C10.5996 11.6724 11.2273 12.3 11.9997 12.3ZM8.8 10.9C8.8 11.6724 8.17025 12.3 7.40484 12.3C6.62975 12.3 6 11.6724 6 10.9C6 10.1276 6.62975 9.5 7.40484 9.5C8.16056 9.5 8.8 10.1276 8.8 10.9Z" fill="#2C2E33"/>
</svg>
