<svg width="24" height="24" viewBox="0 0 24 24" fill="none" xmlns="http://www.w3.org/2000/svg">
<path fill-rule="evenodd" clip-rule="evenodd" d="M11.9505 1H12.0495C13.8768 0.999992 15.3162 0.999986 16.4701 1.10456C17.6481 1.21133 18.6263 1.43338 19.5 1.93782C20.5641 2.5522 21.4478 3.43587 22.0622 4.5C22.5666 5.37372 22.7887 6.35191 22.8954 7.52993C23 8.68378 23 10.1232 23 11.9504V12.0495C23 13.8767 23 15.3162 22.8954 16.4701C22.7887 17.6481 22.5666 18.6263 22.0622 19.5C21.4478 20.5641 20.5641 21.4478 19.5 22.0622C18.6263 22.5666 17.6481 22.7887 16.4701 22.8954C15.3162 23 13.8768 23 12.0496 23H11.9505C10.1233 23 8.68378 23 7.52993 22.8954C6.35191 22.7887 5.37372 22.5666 4.5 22.0622C3.43587 21.4478 2.5522 20.5641 1.93782 19.5C1.43338 18.6263 1.21133 17.6481 1.10456 16.4701C0.999986 15.3162 0.999992 13.8768 1 12.0495V11.9505C0.999992 10.1232 0.999986 8.68379 1.10456 7.52993C1.21133 6.35191 1.43338 5.37372 1.93782 4.5C2.5522 3.43587 3.43587 2.5522 4.5 1.93782C5.37372 1.43338 6.35191 1.21133 7.52993 1.10456C8.68379 0.999986 10.1232 0.999992 11.9505 1ZM8.47353 6H8.52656C8.73657 5.99998 8.94118 5.99996 9.11523 6.01184C9.3056 6.02483 9.53133 6.0553 9.76537 6.15225C10.2554 6.35523 10.6448 6.74458 10.8478 7.23464C10.9447 7.46868 10.9752 7.69441 10.9882 7.88478C11 8.05886 11 8.26348 11 8.47353V8.52648C11 8.73653 11 8.94115 10.9882 9.11523C10.9752 9.3056 10.9447 9.53133 10.8478 9.76537C10.6448 10.2554 10.2554 10.6448 9.76537 10.8478C9.53133 10.9447 9.3056 10.9752 9.11523 10.9882C8.94115 11 8.73653 11 8.52648 11H8.47353C8.26348 11 8.05886 11 7.88478 10.9882C7.69441 10.9752 7.46868 10.9447 7.23464 10.8478C6.74458 10.6448 6.35523 10.2554 6.15225 9.76537C6.0553 9.53133 6.02483 9.3056 6.01184 9.11523C5.99996 8.94118 5.99998 8.73651 6 8.5265V8.47345C5.99998 8.26344 5.99996 8.05883 6.01184 7.88478C6.02483 7.69441 6.0553 7.46868 6.15225 7.23464C6.35523 6.74458 6.74458 6.35523 7.23464 6.15225C7.46868 6.0553 7.69441 6.02483 7.88478 6.01184C8.05883 5.99996 8.26352 5.99998 8.47353 6ZM6 13.5C6 12.9477 6.44772 12.5 7 12.5H17C17.5523 12.5 18 12.9477 18 13.5C18 14.0523 17.5523 14.5 17 14.5H7C6.44772 14.5 6 14.0523 6 13.5ZM7 16C6.44772 16 6 16.4477 6 17C6 17.5523 6.44772 18 7 18H12C12.5523 18 13 17.5523 13 17C13 16.4477 12.5523 16 12 16H7Z" fill="#2C2E33"/>
</svg>
