<svg width="24" height="24" viewBox="0 0 24 24" fill="none" xmlns="http://www.w3.org/2000/svg">
<rect x="2" y="2" width="20" height="20" rx="6" stroke="#2C2E33" stroke-width="2"/>
<path d="M8.47353 6C8.26351 5.99998 8.05884 5.99996 7.88478 6.01184C7.69441 6.02483 7.46868 6.0553 7.23464 6.15225C6.74458 6.35523 6.35523 6.74458 6.15225 7.23464C6.0553 7.46868 6.02483 7.69441 6.01184 7.88478C5.99996 8.05884 5.99998 8.26343 6 8.47345V8.52648C5.99998 8.7365 5.99996 8.94117 6.01184 9.11523C6.02483 9.3056 6.0553 9.53133 6.15225 9.76537C6.35523 10.2554 6.74458 10.6448 7.23464 10.8478C7.46868 10.9447 7.69441 10.9752 7.88478 10.9882C8.05886 11 8.26348 11 8.47353 11H8.52648C8.73653 11 8.94115 11 9.11523 10.9882C9.3056 10.9752 9.53133 10.9447 9.76537 10.8478C10.2554 10.6448 10.6448 10.2554 10.8478 9.76537C10.9447 9.53133 10.9752 9.3056 10.9882 9.11523C11 8.94115 11 8.73653 11 8.52648V8.47353C11 8.26348 11 8.05886 10.9882 7.88478C10.9752 7.69441 10.9447 7.46868 10.8478 7.23464C10.6448 6.74458 10.2554 6.35523 9.76537 6.15225C9.53133 6.0553 9.3056 6.02483 9.11523 6.01184C8.94117 5.99996 8.73658 5.99998 8.52656 6H8.47353Z" fill="#2C2E33"/>
<path d="M7 13.5H17" stroke="#2C2E33" stroke-width="2" stroke-linecap="round"/>
<path d="M7 17H12" stroke="#2C2E33" stroke-width="2" stroke-linecap="round"/>
</svg>
