<svg width="24" height="24" viewBox="0 0 24 24" fill="none" xmlns="http://www.w3.org/2000/svg">
<path d="M9.68572 3.92313L3.96016 8.68098C3.15526 9.34984 2.75281 9.68427 2.48498 10.11C2.34709 10.3292 2.23668 10.5645 2.15624 10.8106C2 11.2886 2 11.8119 2 12.8585V18.3789C2 19.7972 2 20.5064 2.32773 21.0228C2.49378 21.2844 2.71555 21.5062 2.97721 21.6723C3.49363 22 4.20277 22 5.62105 22H6.79536C7.3286 22 7.59523 22 7.81154 21.9318C8.27012 21.7872 8.62933 21.428 8.77391 20.9694C8.84211 20.7531 8.84211 20.4865 8.84211 19.9533V17.3949C8.84211 15.5781 10.3149 14.1054 12.1316 14.1054C13.9483 14.1054 15.4211 15.5781 15.4211 17.3949V19.9532C15.4211 20.4865 15.4211 20.7531 15.4893 20.9694C15.6338 21.428 15.993 21.7872 16.4516 21.9318C16.6679 22 16.9346 22 17.4678 22H18.3789C19.7972 22 20.5064 22 21.0228 21.6723C21.2844 21.5062 21.5062 21.2844 21.6723 21.0228C22 20.5064 22 19.7972 22 18.3789V12.8585C22 11.8119 22 11.2886 21.8438 10.8106C21.7633 10.5645 21.6529 10.3292 21.515 10.11C21.2472 9.68427 20.8447 9.34984 20.0398 8.68098L14.3143 3.92313C13.3933 3.15777 12.9327 2.7751 12.4061 2.67156C12.138 2.61883 11.8621 2.61883 11.5939 2.67156C11.0673 2.7751 10.6067 3.15778 9.68572 3.92313Z" fill="#2C2E33" stroke="#2C2E33" stroke-width="2" stroke-linecap="round"/>
</svg>
