<svg width="24" height="24" viewBox="0 0 24 24" fill="none" xmlns="http://www.w3.org/2000/svg">
<path d="M10.3564 20.1071L11.09 19.4275C10.7418 19.0517 10.1659 18.9998 9.75615 19.3073L10.3564 20.1071ZM5.05273 21.2883L5.39166 20.3475V20.3475L5.05273 21.2883ZM2.39658 9.81182L1.45802 9.46669H1.45802L2.39658 9.81182ZM11.8844 2.71021L11.5454 3.65103L11.8844 2.71021ZM13.6446 3.89142L12.911 4.57103C13.2592 4.94686 13.8351 4.99876 14.2448 4.69122L13.6446 3.89142ZM18.9482 2.71021L19.2872 1.7694V1.7694L18.9482 2.71021ZM21.6044 14.1867L20.6658 13.8416V13.8416L21.6044 14.1867ZM12.1166 21.2883L12.4555 20.3475H12.4555L12.1166 21.2883ZM9.75615 19.3073C8.20259 20.4733 6.64977 20.8007 5.39166 20.3475L4.71379 22.2291C6.81546 22.9863 9.07127 22.322 10.9567 20.9069L9.75615 19.3073ZM5.39166 20.3475C4.13844 19.896 3.16682 18.6658 2.73391 16.7954C2.30329 14.9348 2.44897 12.5668 3.33513 10.1569L1.45802 9.46669C0.457687 12.187 0.254707 14.9533 0.78542 17.2463C1.31385 19.5296 2.61355 21.4725 4.71379 22.2291L5.39166 20.3475ZM3.33513 10.1569C4.22123 7.74728 5.64816 5.83849 7.1896 4.68473C8.74041 3.52395 10.2897 3.19863 11.5454 3.65103L12.2233 1.7694C10.1256 1.01371 7.87423 1.67408 5.99114 3.08358C4.09866 4.50009 2.45843 6.74616 1.45802 9.46669L3.33513 10.1569ZM11.5454 3.65103C12.061 3.83676 12.5178 4.14661 12.911 4.57103L14.3781 3.21182C13.7846 2.57117 13.0629 2.07188 12.2233 1.7694L11.5454 3.65103ZM14.2448 4.69122C15.7984 3.52521 17.3512 3.19779 18.6093 3.65103L19.2872 1.7694C17.1855 1.01227 14.9297 1.67654 13.0443 3.09163L14.2448 4.69122ZM18.6093 3.65103C19.8625 4.1025 20.8342 5.3327 21.2671 7.20315C21.6977 9.06376 21.552 11.4317 20.6658 13.8416L22.543 14.5318C23.5433 11.8115 23.7463 9.04526 23.2156 6.75219C22.6871 4.46897 21.3874 2.52602 19.2872 1.7694L18.6093 3.65103ZM20.6658 13.8416C19.7797 16.2513 18.3528 18.16 16.8114 19.3138C15.2606 20.4746 13.7113 20.7999 12.4555 20.3475L11.7777 22.2291C13.8754 22.9848 16.1267 22.3244 18.0098 20.915C19.9023 19.4984 21.5425 17.2524 22.543 14.5318L20.6658 13.8416ZM12.4555 20.3475C11.94 20.1618 11.4832 19.8519 11.09 19.4275L9.62284 20.7867C10.2164 21.4274 10.9381 21.9267 11.7777 22.2291L12.4555 20.3475Z" fill="#2C2E33"/>
<path d="M15.4097 11.0283C16.1276 11.4769 16.1276 12.5223 15.4098 12.9709L11.0802 15.6769C10.3172 16.1538 9.32764 15.6053 9.32764 14.7056L9.32764 9.29362C9.32764 8.39396 10.3172 7.84548 11.0801 8.32229L15.4097 11.0283Z" fill="#2C2E33"/>
</svg>
