<svg width="24" height="24" viewBox="0 0 24 24" fill="none" xmlns="http://www.w3.org/2000/svg">
<path fill-rule="evenodd" clip-rule="evenodd" d="M12.0495 1H11.9505C10.1232 0.999992 8.68379 0.999985 7.52993 1.10456C6.35191 1.21133 5.37372 1.43338 4.5 1.93782C3.43587 2.5522 2.5522 3.43587 1.93782 4.5C1.43338 5.37372 1.21133 6.35191 1.10456 7.52993C0.999985 8.68379 0.999992 10.1232 1 11.9505V12.0495C0.999992 13.8768 0.999985 15.3162 1.10456 16.4701C1.21133 17.6481 1.43338 18.6263 1.93782 19.5C2.5522 20.5641 3.43587 21.4478 4.5 22.0622C5.37372 22.5666 6.35191 22.7887 7.52993 22.8954C8.68378 23 10.1232 23 11.9504 23H12.0495C13.8767 23 15.3162 23 16.4701 22.8954C17.6481 22.7887 18.6263 22.5666 19.5 22.0622C20.5641 21.4478 21.4478 20.5641 22.0622 19.5C22.5666 18.6263 22.7887 17.6481 22.8954 16.4701C23 15.3162 23 13.8768 23 12.0496V11.9505C23 10.1233 23 8.68378 22.8954 7.52993C22.7887 6.35191 22.5666 5.37372 22.0622 4.5C21.4478 3.43587 20.5641 2.5522 19.5 1.93782C18.6263 1.43338 17.6481 1.21133 16.4701 1.10456C15.3162 0.999985 13.8768 0.999992 12.0495 1ZM9 7C9 6.44772 8.55228 6 8 6C7.44772 6 7 6.44772 7 7C7 9.76142 9.23858 12 12 12C14.7614 12 17 9.76142 17 7C17 6.44772 16.5523 6 16 6C15.4477 6 15 6.44772 15 7C15 8.65685 13.6569 10 12 10C10.3431 10 9 8.65685 9 7Z" fill="#2C2E33"/>
</svg>
